<?xml version="1.0" encoding="UTF-8"?>
<svg width="100px" height="94px" viewBox="0 0 100 94" version="1.1" xmlns="http://www.w3.org/2000/svg" xmlns:xlink="http://www.w3.org/1999/xlink">
    <!-- Generator: Sketch 51.1 (57501) - http://www.bohemiancoding.com/sketch -->
    <title>Congrats_icn</title>
    <desc>Created with Sketch.</desc>
    <defs></defs>
    <g id="Logging-actions" stroke="none" stroke-width="1" fill="none" fill-rule="evenodd">
        <g id="Logging_actions" transform="translate(-670.000000, -277.000000)">
            <g id="dialog" transform="translate(400.000000, 227.000000)">
                <g id="Congrats_icn" transform="translate(270.000000, 50.000000)">
                    <path d="M28.2731092,69.8226891 C28.5184874,70.6865546 28.6739496,71.5663866 28.7411765,72.4621849 C28.8067227,73.3588235 28.7831933,74.2546218 28.6680672,75.1495798 C28.5529412,76.0445378 28.3495798,76.9210084 28.0579832,77.7806723 C27.7655462,78.6394958 27.3907563,79.4638655 26.9327731,80.2546218 C26.4747899,81.0445378 25.9428571,81.7857143 25.3369748,82.4764706 C24.7310924,83.1680672 24.0621849,83.7957983 23.3310924,84.3613445 C22.6008403,84.9260504 21.8210084,85.4184874 20.9932773,85.8361345 C20.1655462,86.2537815 19.305042,86.589916 18.412605,86.8445378 C17.5193277,87.0983193 16.6109244,87.2663866 15.687395,87.3470588 C14.7638655,87.4285714 13.8428571,87.4210084 12.9235294,87.3260504 C12.005042,87.2302521 11.1058824,87.0487395 10.2277311,86.7806723 C9.3487395,86.512605 8.50672269,86.1630252 7.70168067,85.7319328 C6.89663866,85.3016807 6.14453782,84.7983193 5.44453782,84.2218487 C4.74453782,83.6453782 4.11008403,83.0067227 3.54117647,82.3067227 C2.97310924,81.6067227 2.48151261,80.8579832 2.06638655,80.0605042 C1.65210084,79.2638655 1.32184874,78.4336134 1.07563025,77.5705882 C0.830252101,76.7067227 0.674789916,75.8268908 0.608403361,74.9310924 C0.542016807,74.0344538 0.565546218,73.1386555 0.680672269,72.2436975 C0.795798319,71.3487395 0.999159664,70.4722689 1.2907563,69.612605 C1.58319328,68.7537815 1.95798319,67.9294118 2.41596639,67.1386555 C2.87394958,66.3487395 3.40588235,65.607563 4.01176471,64.9168067 C4.61764706,64.2260504 5.28655462,63.597479 6.01764706,63.0319328 C6.74789916,62.4663866 7.52773109,61.9747899 8.35546218,61.5571429 C9.18319328,61.1394958 10.0436975,60.8033613 10.9361345,60.5487395 C11.8294118,60.2941176 12.7378151,60.1268908 13.6613445,60.0453782 C14.5848739,59.9647059 15.5058824,59.9714286 16.4252101,60.0672269 C17.3436975,60.1630252 18.2428571,60.3445378 19.1210084,60.612605 C20,60.8806723 20.8420168,61.2302521 21.6470588,61.6605042 C22.4521008,62.0915966 23.2042017,62.594958 23.9042017,63.1714286 C24.6042017,63.7478992 25.2386555,64.3865546 25.807563,65.0865546 C26.3756303,65.7865546 26.8672269,66.5352941 27.2823529,67.3327731 C27.697479,68.1294118 28.0268908,68.9596639 28.2731092,69.8226891" id="Fill-91" fill="#EA7103"></path>
                    <path d="M99.8521008,55.6941176 C99.8521008,76.6008403 80.7327731,93.487395 51.1705882,93.487395 C21.6084034,93.487395 2.48991597,76.6008403 2.48991597,55.6941176 C2.48991597,34.7865546 21.6084034,3.42605042 51.1705882,3.42605042 C80.7327731,3.42605042 99.8521008,34.7865546 99.8521008,55.6941176" id="Fill-93" fill="#F7910B"></path>
                    <path d="M99.8521008,55.6941176 C99.8521008,76.6008403 80.7327731,87.0546218 51.1705882,87.0546218 C21.6084034,87.0546218 2.48991597,76.6008403 2.48991597,55.6941176 C2.48991597,34.7865546 21.6084034,0.210084034 51.1705882,0.210084034 C80.7327731,0.210084034 99.8521008,34.7865546 99.8521008,55.6941176" id="Fill-94" fill="#F7910B"></path>
                    <path d="M51.1705882,0.210084034 C80.7327731,0.210084034 99.8521008,34.7865546 99.8521008,55.6941176 C99.8521008,76.6008403 80.7327731,87.0546218 51.1705882,87.0546218" id="Fill-95" fill="#F9A908"></path>
                    <path d="M99.8521008,55.6941176 C99.8521008,76.6008403 80.7327731,87.0546218 51.1705882,87.0546218 C21.6084034,87.0546218 2.48991597,76.6008403 2.48991597,55.6941176 C2.48991597,34.7865546 21.6084034,3.42605042 51.1705882,3.42605042 C80.7327731,3.42605042 99.8521008,34.7865546 99.8521008,55.6941176" id="Fill-96" fill="#F9A908"></path>
                    <path d="M2.48991597,55.6941176 C2.48991597,34.7865546 21.6084034,3.42605042 51.1705882,3.42605042" id="Fill-97" fill="#F9C55D"></path>
                    <path d="M51.1705882,3.42605042 C80.7327731,3.42605042 99.8521008,34.7865546 99.8521008,55.6941176 C99.8521008,76.6008403 80.7327731,93.487395 51.1705882,93.487395" id="Fill-98" fill="#F7910B"></path>
                    <path d="M51.1705882,3.42605042 C80.7327731,3.42605042 99.8521008,34.7865546 99.8521008,55.6941176" id="Fill-99" fill="#EA7103"></path>
                    <path d="M39.6033613,36.7168067 C39.6033613,37.3991597 39.4722689,38.0554622 39.2117647,38.6865546 C38.9512605,39.3168067 38.5789916,39.8731092 38.097479,40.3554622 C37.6151261,40.8386555 37.0588235,41.210084 36.4294118,41.4714286 C35.7991597,41.7327731 35.1436975,41.8630252 34.4621849,41.8630252 C33.7798319,41.8630252 33.1243697,41.7327731 32.4941176,41.4714286 C31.8647059,41.210084 31.3084034,40.8386555 30.8268908,40.3554622 C30.3445378,39.8731092 29.9731092,39.3168067 29.7117647,38.6865546 C29.4512605,38.0554622 29.3201681,37.3991597 29.3201681,36.7168067 C29.3201681,36.0344538 29.4512605,35.3781513 29.7117647,34.7478992 C29.9731092,34.1168067 30.3445378,33.5605042 30.8268908,33.0773109 C31.3084034,32.594958 31.8647059,32.2235294 32.4941176,31.9621849 C33.1243697,31.7008403 33.7798319,31.5705882 34.4621849,31.5705882 C35.1436975,31.5705882 35.7991597,31.7008403 36.4294118,31.9621849 C37.0588235,32.2235294 37.6151261,32.594958 38.097479,33.0773109 C38.5789916,33.5605042 38.9512605,34.1168067 39.2117647,34.7478992 C39.4722689,35.3781513 39.6033613,36.0344538 39.6033613,36.7168067" id="Fill-100" fill="#EA7103"></path>
                    <path d="M73.0210084,36.7168067 C73.0210084,37.3991597 72.8907563,38.0554622 72.6302521,38.6865546 C72.3689076,39.3168067 71.997479,39.8731092 71.5151261,40.3554622 C71.0336134,40.8386555 70.4773109,41.210084 69.8470588,41.4714286 C69.2176471,41.7327731 68.5613445,41.8630252 67.8798319,41.8630252 C67.1983193,41.8630252 66.5428571,41.7327731 65.912605,41.4714286 C65.2823529,41.210084 64.7268908,40.8386555 64.2445378,40.3554622 C63.7621849,39.8731092 63.3907563,39.3168067 63.1302521,38.6865546 C62.8689076,38.0554622 62.7386555,37.3991597 62.7386555,36.7168067 C62.7386555,36.0344538 62.8689076,35.3781513 63.1302521,34.7478992 C63.3907563,34.1168067 63.7621849,33.5605042 64.2445378,33.0773109 C64.7268908,32.594958 65.2823529,32.2235294 65.912605,31.9621849 C66.5428571,31.7008403 67.1983193,31.5705882 67.8798319,31.5705882 C68.5613445,31.5705882 69.2176471,31.7008403 69.8470588,31.9621849 C70.4773109,32.2235294 71.0336134,32.594958 71.5151261,33.0773109 C71.997479,33.5605042 72.3689076,34.1168067 72.6302521,34.7478992 C72.8907563,35.3781513 73.0210084,36.0344538 73.0210084,36.7168067" id="Fill-101" fill="#EA7103"></path>
                    <path d="M39.6033613,35.2697479 C39.6033613,35.9521008 39.4722689,36.6084034 39.2117647,37.2386555 C38.9512605,37.8689076 38.5789916,38.4260504 38.097479,38.9084034 C37.6151261,39.3907563 37.0588235,39.7630252 36.4294118,40.0243697 C35.7991597,40.2848739 35.1436975,40.4159664 34.4621849,40.4159664 C33.7798319,40.4159664 33.1243697,40.2848739 32.4941176,40.0243697 C31.8647059,39.7630252 31.3084034,39.3907563 30.8268908,38.9084034 C30.3445378,38.4260504 29.9731092,37.8689076 29.7117647,37.2386555 C29.4512605,36.6084034 29.3201681,35.9521008 29.3201681,35.2697479 C29.3201681,34.587395 29.4512605,33.9302521 29.7117647,33.3 C29.9731092,32.6697479 30.3445378,32.112605 30.8268908,31.6302521 C31.3084034,31.1478992 31.8647059,30.7756303 32.4941176,30.5142857 C33.1243697,30.2537815 33.7798319,30.1226891 34.4621849,30.1226891 C35.1436975,30.1226891 35.7991597,30.2537815 36.4294118,30.5142857 C37.0588235,30.7756303 37.6151261,31.1478992 38.097479,31.6302521 C38.5789916,32.112605 38.9512605,32.6697479 39.2117647,33.3 C39.4722689,33.9302521 39.6033613,34.587395 39.6033613,35.2697479" id="Fill-102" fill="#1E4784"></path>
                    <path d="M34.4621849,30.1226891 C37.3537815,30.1226891 39.6033613,32.3747899 39.6033613,35.2697479 C39.6033613,38.1647059 37.3537815,40.4159664 34.4621849,40.4159664" id="Fill-103" fill="#00233F"></path>
                    <path d="M73.0210084,35.2697479 C73.0210084,35.9521008 72.8907563,36.6084034 72.6302521,37.2386555 C72.3689076,37.8689076 71.997479,38.4260504 71.5151261,38.9084034 C71.0336134,39.3907563 70.4773109,39.7630252 69.8470588,40.0243697 C69.2176471,40.2848739 68.5613445,40.4159664 67.8798319,40.4159664 C67.1983193,40.4159664 66.5428571,40.2848739 65.912605,40.0243697 C65.2823529,39.7630252 64.7268908,39.3907563 64.2445378,38.9084034 C63.7621849,38.4260504 63.3907563,37.8689076 63.1302521,37.2386555 C62.8689076,36.6084034 62.7386555,35.9521008 62.7386555,35.2697479 C62.7386555,34.587395 62.8689076,33.9302521 63.1302521,33.3 C63.3907563,32.6697479 63.7621849,32.112605 64.2445378,31.6302521 C64.7268908,31.1478992 65.2823529,30.7756303 65.912605,30.5142857 C66.5428571,30.2537815 67.1983193,30.1226891 67.8798319,30.1226891 C68.5613445,30.1226891 69.2176471,30.2537815 69.8470588,30.5142857 C70.4773109,30.7756303 71.0336134,31.1478992 71.5151261,31.6302521 C71.997479,32.112605 72.3689076,32.6697479 72.6302521,33.3 C72.8907563,33.9302521 73.0210084,34.587395 73.0210084,35.2697479" id="Fill-104" fill="#1E4784"></path>
                    <path d="M67.8798319,30.1226891 C70.7722689,30.1226891 73.0210084,32.3747899 73.0210084,35.2697479 C73.0210084,38.1647059 70.7722689,40.4159664 67.8798319,40.4159664" id="Fill-105" fill="#00233F"></path>
                    <path d="M40.8882353,17.0966387 C40.8882353,19.187395 38.8,18.0613445 36.2294118,18.0613445 C33.6588235,18.0613445 31.5697479,19.0260504 31.5697479,17.0966387 C31.5697479,15.0058824 33.6588235,13.397479 36.2294118,13.397479 C38.8,13.397479 40.8882353,15.0058824 40.8882353,17.0966387" id="Fill-106" fill="#19BCA4"></path>
                    <path d="M40.8882353,17.0966387 C40.8882353,19.187395 38.8,18.0613445 36.2294118,18.0613445 C33.6588235,18.0613445 31.5697479,19.0260504 31.5697479,17.0966387" id="Fill-107" fill="#109DA0"></path>
                    <path d="M62.4176471,21.9210084 C62.4176471,24.0117647 64.5058824,22.8857143 67.0764706,22.8857143 C69.6470588,22.8857143 71.7361345,23.8512605 71.7361345,21.9210084 C71.7361345,19.8302521 69.6470588,18.2218487 67.0764706,18.2218487 C64.5058824,18.2218487 62.4176471,19.8302521 62.4176471,21.9210084" id="Fill-108" fill="#19BCA4"></path>
                    <path d="M62.4176471,21.9210084 C62.4176471,24.0117647 64.5058824,22.8857143 67.0764706,22.8857143 C69.6470588,22.8857143 71.7361345,23.8512605 71.7361345,21.9210084" id="Fill-109" fill="#109DA0"></path>
                    <path d="M44.4226891,44.9193277 C44.4226891,46.8487395 38.8,46.0445378 31.8907563,46.0445378 C24.9823529,46.0445378 19.3596639,47.0092437 19.3596639,44.9193277 C19.3596639,42.8285714 24.9823529,41.3806723 31.8907563,41.3806723 C38.8,41.3806723 44.4226891,42.9890756 44.4226891,44.9193277" id="Fill-110" fill="#F9C55D"></path>
                    <path d="M82.9823529,44.9193277 C82.9823529,46.8487395 77.3588235,46.0445378 70.4504202,46.0445378 C63.5420168,46.0445378 57.9184874,47.0092437 57.9184874,44.9193277 C57.9184874,42.8285714 63.5420168,41.3806723 70.4504202,41.3806723 C77.3588235,41.3806723 82.9823529,42.9890756 82.9823529,44.9193277" id="Fill-111" fill="#F9A908"></path>
                    <path d="M17.2705882,50.8689076 C17.2705882,51.1361345 17.1764706,51.3630252 16.9882353,51.5512605 C16.8,51.7403361 16.5731092,51.8344538 16.3067227,51.8344538 C16.0403361,51.8344538 15.8134454,51.7403361 15.6252101,51.5512605 C15.4369748,51.3630252 15.3428571,51.1361345 15.3428571,50.8689076 C15.3428571,50.602521 15.4369748,50.3756303 15.6252101,50.187395 C15.8134454,49.9983193 16.0403361,49.9042017 16.3067227,49.9042017 C16.5731092,49.9042017 16.8,49.9983193 16.9882353,50.187395 C17.1764706,50.3756303 17.2705882,50.602521 17.2705882,50.8689076" id="Fill-112" fill="#F7910B"></path>
                    <path d="M10.8445378,54.0857143 C10.8445378,54.5739496 10.6714286,54.9907563 10.3268908,55.3369748 C9.98151261,55.6823529 9.56470588,55.8546218 9.07731092,55.8546218 C8.58907563,55.8546218 8.17226891,55.6823529 7.82689076,55.3369748 C7.48235294,54.9907563 7.3092437,54.5739496 7.3092437,54.0857143 C7.3092437,53.597479 7.48235294,53.1798319 7.82689076,52.8344538 C8.17226891,52.4890756 8.58907563,52.3168067 9.07731092,52.3168067 C9.56470588,52.3168067 9.98151261,52.4890756 10.3268908,52.8344538 C10.6714286,53.1798319 10.8445378,53.597479 10.8445378,54.0857143" id="Fill-113" fill="#F7910B"></path>
                    <path d="M14.2184874,47.6529412 C14.2184874,47.8672269 14.1109244,47.9739496 13.8966387,47.9739496 C13.6823529,47.9739496 13.5756303,47.8672269 13.5756303,47.6529412 C13.5756303,47.4386555 13.6823529,47.3310924 13.8966387,47.3310924 C14.1109244,47.3310924 14.2184874,47.4386555 14.2184874,47.6529412" id="Fill-114" fill="#F7910B"></path>
                    <path d="M21.6084034,50.5478992 C21.6084034,50.7621849 21.5016807,50.8689076 21.287395,50.8689076 C21.0731092,50.8689076 20.9663866,50.7621849 20.9663866,50.5478992 C20.9663866,50.3327731 21.0731092,50.2260504 21.287395,50.2260504 C21.5016807,50.2260504 21.6084034,50.3327731 21.6084034,50.5478992" id="Fill-115" fill="#F7910B"></path>
                    <path d="M85.5529412,51.3521008 C85.5529412,51.7067227 85.4277311,52.010084 85.1764706,52.2613445 C84.9252101,52.512605 84.6226891,52.6378151 84.2680672,52.6378151 C83.912605,52.6378151 83.610084,52.512605 83.3588235,52.2613445 C83.107563,52.010084 82.9823529,51.7067227 82.9823529,51.3521008 C82.9823529,50.9966387 83.107563,50.6932773 83.3588235,50.4420168 C83.610084,50.1907563 83.912605,50.0655462 84.2680672,50.0655462 C84.6226891,50.0655462 84.9252101,50.1907563 85.1764706,50.4420168 C85.4277311,50.6932773 85.5529412,50.9966387 85.5529412,51.3521008" id="Fill-116" fill="#F9A908"></path>
                    <path d="M88.6058824,53.6033613 C88.6058824,53.8176471 88.4983193,53.9252101 88.2840336,53.9252101 C88.0705882,53.9252101 87.9630252,53.8176471 87.9630252,53.6033613 C87.9630252,53.3890756 88.0705882,53.2815126 88.2840336,53.2815126 C88.4983193,53.2815126 88.6058824,53.3890756 88.6058824,53.6033613" id="Fill-117" fill="#F9A908"></path>
                    <path d="M80.2512605,39.4504202 C80.2512605,39.7722689 80.0907563,39.9336134 79.7689076,39.9336134 C79.4478992,39.9336134 79.287395,39.7722689 79.287395,39.4504202 C79.287395,39.1294118 79.4478992,38.9680672 79.7689076,38.9680672 C80.0907563,38.9680672 80.2512605,39.1294118 80.2512605,39.4504202" id="Fill-118" fill="#F9A908"></path>
                    <path d="M81.0546218,58.1058824 C81.0546218,58.6840336 80.8504202,59.1764706 80.4428571,59.5848739 C80.0344538,59.992437 79.5420168,60.1966387 78.9655462,60.1966387 C78.3890756,60.1966387 77.8966387,59.992437 77.4890756,59.5848739 C77.0815126,59.1764706 76.8773109,58.6840336 76.8773109,58.1058824 C76.8773109,57.5285714 77.0815126,57.0361345 77.4890756,56.6277311 C77.8966387,56.2201681 78.3890756,56.0159664 78.9655462,56.0159664 C79.5420168,56.0159664 80.0344538,56.2201681 80.4428571,56.6277311 C80.8504202,57.0361345 81.0546218,57.5285714 81.0546218,58.1058824" id="Fill-119" fill="#F9A908"></path>
                    <path d="M91.497479,58.2672269 C91.497479,58.5336134 91.4033613,58.7613445 91.2151261,58.9495798 C91.0268908,59.1378151 90.8,59.2319328 90.5336134,59.2319328 C90.2672269,59.2319328 90.0403361,59.1378151 89.8521008,58.9495798 C89.6638655,58.7613445 89.5697479,58.5336134 89.5697479,58.2672269 C89.5697479,58.0008403 89.6638655,57.7731092 89.8521008,57.5848739 C90.0403361,57.3966387 90.2672269,57.3016807 90.5336134,57.3016807 C90.8,57.3016807 91.0268908,57.3966387 91.2151261,57.5848739 C91.4033613,57.7731092 91.497479,58.0008403 91.497479,58.2672269" id="Fill-120" fill="#F9A908"></path>
                    <path d="M15.5033613,57.3016807 C15.5033613,57.8386555 15.2352941,58.1058824 14.7,58.1058824 C14.1647059,58.1058824 13.8966387,57.8386555 13.8966387,57.3016807 C13.8966387,56.7663866 14.1647059,56.4983193 14.7,56.4983193 C15.2352941,56.4983193 15.5033613,56.7663866 15.5033613,57.3016807" id="Fill-121" fill="#F7910B"></path>
                    <path d="M16.6285714,43.7932773 C16.6285714,44.2218487 16.4134454,44.4361345 15.9857143,44.4361345 C15.5571429,44.4361345 15.3428571,44.2218487 15.3428571,43.7932773 C15.3428571,43.3647059 15.5571429,43.1495798 15.9857143,43.1495798 C16.4134454,43.1495798 16.6285714,43.3647059 16.6285714,43.7932773" id="Fill-122" fill="#F7910B"></path>
                    <path d="M9.23781513,21.6 C9.23781513,22.0882353 9.06554622,22.505042 8.72016807,22.8504202 C8.37478992,23.1957983 7.95798319,23.3689076 7.4697479,23.3689076 C6.98235294,23.3689076 6.56554622,23.1957983 6.22016807,22.8504202 C5.87563025,22.505042 5.70336134,22.0882353 5.70336134,21.6 C5.70336134,21.1109244 5.87563025,20.6941176 6.22016807,20.3487395 C6.56554622,20.0033613 6.98235294,19.8302521 7.4697479,19.8302521 C7.95798319,19.8302521 8.37478992,20.0033613 8.72016807,20.3487395 C9.06554622,20.6941176 9.23781513,21.1109244 9.23781513,21.6" id="Fill-123" fill="#F9A908"></path>
                    <path d="M13.5756303,15.9705882 C13.5756303,16.2369748 13.4815126,16.4647059 13.2932773,16.6529412 C13.105042,16.8411765 12.8781513,16.9361345 12.6117647,16.9361345 C12.3453782,16.9361345 12.1184874,16.8411765 11.9294118,16.6529412 C11.7420168,16.4647059 11.6478992,16.2369748 11.6478992,15.9705882 C11.6478992,15.7042017 11.7420168,15.4773109 11.9294118,15.2882353 C12.1184874,15.1 12.3453782,15.0058824 12.6117647,15.0058824 C12.8781513,15.0058824 13.105042,15.1 13.2932773,15.2882353 C13.4815126,15.4773109 13.5756303,15.7042017 13.5756303,15.9705882" id="Fill-124" fill="#F9A908"></path>
                    <path d="M95.1932773,25.4588235 C95.1932773,25.6739496 95.0857143,25.7806723 94.8714286,25.7806723 C94.6571429,25.7806723 94.5504202,25.6739496 94.5504202,25.4588235 C94.5504202,25.2445378 94.6571429,25.1378151 94.8714286,25.1378151 C95.0857143,25.1378151 95.1932773,25.2445378 95.1932773,25.4588235" id="Fill-125" fill="#F9A908"></path>
                    <path d="M94.8714286,20.794958 C94.8714286,21.1504202 94.7462185,21.4537815 94.494958,21.705042 C94.2436975,21.9563025 93.9411765,22.0823529 93.5865546,22.0823529 C93.2310924,22.0823529 92.9285714,21.9563025 92.6773109,21.705042 C92.4268908,21.4537815 92.3008403,21.1504202 92.3008403,20.794958 C92.3008403,20.4403361 92.4268908,20.1369748 92.6773109,19.8857143 C92.9285714,19.6344538 93.2310924,19.5092437 93.5865546,19.5092437 C93.9411765,19.5092437 94.2436975,19.6344538 94.494958,19.8857143 C94.7462185,20.1369748 94.8714286,20.4403361 94.8714286,20.794958" id="Fill-126" fill="#F9A908"></path>
                    <path d="M98.5672269,21.6 C98.5672269,22.1352941 98.2991597,22.4033613 97.7638655,22.4033613 C97.2277311,22.4033613 96.9596639,22.1352941 96.9596639,21.6 C96.9596639,21.0638655 97.2277311,20.794958 97.7638655,20.794958 C98.2991597,20.794958 98.5672269,21.0638655 98.5672269,21.6" id="Fill-127" fill="#F9A908"></path>
                    <path d="M10.3621849,26.4243697 C10.3621849,26.6907563 10.2680672,26.9176471 10.0798319,27.1067227 C9.89159664,27.294958 9.66470588,27.3890756 9.39831933,27.3890756 C9.13193277,27.3890756 8.90504202,27.294958 8.71680672,27.1067227 C8.52857143,26.9176471 8.43445378,26.6907563 8.43445378,26.4243697 C8.43445378,26.1579832 8.52857143,25.9302521 8.71680672,25.7420168 C8.90504202,25.5537815 9.13193277,25.4588235 9.39831933,25.4588235 C9.66470588,25.4588235 9.89159664,25.5537815 10.0798319,25.7420168 C10.2680672,25.9302521 10.3621849,26.1579832 10.3621849,26.4243697" id="Fill-128" fill="#F9A908"></path>
                    <path d="M57.4369748,51.0302521 C57.4369748,52.3168067 54.7058824,53.4420168 51.1705882,53.4420168 C47.6361345,53.4420168 44.905042,52.3168067 44.905042,51.0302521" id="Fill-129" fill="#F9C55D"></path>
                    <path d="M59.8470588,54.2470588 C59.8470588,57.3016807 55.9907563,62.9310924 51.1705882,62.9310924 C46.3512605,62.9310924 42.494958,57.3016807 42.494958,54.2470588" id="Fill-130" fill="#F7910B"></path>
                    <path d="M33.4983193,52.1563025 C32.5336134,52.1563025 31.7302521,51.3521008 31.7302521,50.3865546 C31.7302521,49.4218487 32.5336134,48.6176471 33.4983193,48.6176471 C34.3008403,48.6176471 34.9436975,47.9739496 34.9436975,47.1705882 C34.9436975,46.205042 35.7470588,45.4016807 36.7109244,45.4016807 C37.6747899,45.4016807 38.4781513,46.205042 38.4781513,47.1705882 C38.3176471,49.9042017 36.0680672,52.1563025 33.4983193,52.1563025" id="Fill-131" fill="#02243E"></path>
                    <path d="M69.005042,52.1563025 C66.2731092,52.1563025 64.0243697,49.9042017 64.0243697,47.1705882 C64.0243697,46.205042 64.8277311,45.4016807 65.7915966,45.4016807 C66.7554622,45.4016807 67.5588235,46.205042 67.5588235,47.1705882 C67.5588235,47.9739496 68.2008403,48.6176471 69.005042,48.6176471 C69.9689076,48.6176471 70.7722689,49.4218487 70.7722689,50.3865546 C70.7722689,51.3521008 69.9689076,52.1563025 69.005042,52.1563025" id="Fill-132" fill="#02243E"></path>
                    <path d="M51.1705882,57.9453782 C45.0655462,57.9453782 38.9605042,55.6941176 34.4621849,51.0302521 C33.8193277,50.3865546 33.8193277,49.2613445 34.4621849,48.4571429 C35.1042017,47.6529412 36.2294118,47.8134454 37.0327731,48.4571429 C44.905042,56.3369748 57.7579832,56.3369748 65.6302521,48.4571429 C66.2731092,47.8134454 67.3983193,47.8134454 68.2008403,48.4571429 C68.8436975,49.1 68.8436975,50.2260504 68.2008403,51.0302521 C63.3815126,55.6941176 57.2764706,57.9453782 51.1705882,57.9453782" id="Fill-133" fill="#02243E"></path>
                    <path d="M18.8773109,38.9680672 C15.3428571,37.8428571 8.75546218,49.4218487 6.02436975,58.5890756 C3.13193277,67.7554622 -0.0806722689,80.6210084 11.005042,71.1327731 C13.8966387,68.7210084 16.1462185,73.8672269 19.0378151,64.7 C21.7689076,55.5327731 22.5722689,40.0941176 18.8773109,38.9680672" id="Fill-134" fill="#CCF2E3"></path>
                    <path d="M34.4621849,80.6210084 C23.0546218,80.6210084 25.9470588,77.887395 26.107563,74.6714286 C26.2680672,71.4546218 23.3764706,68.7210084 34.9436975,68.7210084 C46.3512605,68.7210084 50.8495798,71.4546218 50.6890756,74.6714286 C50.6890756,78.0487395 46.0294118,80.6210084 34.4621849,80.6210084" id="Fill-135" fill="#AAD6C3"></path>
                    <path d="M50.8495798,74.8319328 C50.6890756,78.0487395 46.0294118,80.7823529 34.6226891,80.7823529 C23.2151261,80.7823529 26.107563,78.0487395 26.2680672,74.8319328" id="Fill-136" fill="#AAD6C3"></path>
                    <path d="M32.3731092,68.7210084 C20.9663866,68.7210084 24.0184874,66.1478992 24.0184874,62.7697479 C24.1789916,59.5537815 19.6806723,56.6588235 31.2487395,56.8201681 C42.6554622,56.8201681 48.7605042,59.5537815 48.6,62.9310924 C48.4394958,66.1478992 43.7798319,68.8815126 32.3731092,68.7201681" id="Fill-137" fill="#CCF2E3"></path>
                    <path d="M48.6,62.9310924 C48.4394958,66.1478992 43.7798319,68.8815126 32.3731092,68.7210084 C20.9663866,68.7210084 24.0184874,66.1478992 24.0184874,62.7697479" id="Fill-138" fill="#AAD6C3"></path>
                    <path d="M29.3201681,92.3613445 C17.9134454,92.3613445 20.8058824,89.6277311 20.9663866,86.4109244 C21.1268908,83.194958 18.2344538,80.4605042 29.802521,80.4605042 C41.2092437,80.4605042 45.7084034,83.194958 45.5478992,86.4109244 C45.5478992,89.7882353 40.8882353,92.3613445 29.3201681,92.3613445" id="Fill-139" fill="#AAD6C3"></path>
                    <path d="M45.5478992,86.5722689 C45.387395,89.7882353 40.7277311,92.5226891 29.3201681,92.5226891 C17.9134454,92.5226891 20.8058824,89.7882353 20.9663866,86.5722689" id="Fill-140" fill="#AAD6C3"></path>
                    <path d="M21.7689076,92.3613445 C11.1655462,92.3613445 2.48991597,86.8941176 2.81092437,76.2789916 C3.29327731,65.6647059 12.289916,57.1411765 22.8941176,57.1411765 C33.4983193,57.1411765 37.0327731,65.6647059 36.5504202,76.2789916 C36.0680672,86.8941176 32.3731092,92.3613445 21.7689076,92.3613445" id="Fill-141" fill="#CCF2E3"></path>
                    <path d="M21.7689076,92.3613445 C11.1655462,92.3613445 2.48991597,86.8941176 2.81092437,76.2789916 C3.13193277,65.6647059 12.7722689,61.4840336 23.3764706,62.4487395 C34.3008403,63.4134454 36.2294118,59.0714286 36.5504202,75.6361345 C36.7109244,86.2504202 32.694958,92.3613445 21.7689076,92.3613445" id="Fill-142" fill="#AAD6C3"></path>
                    <path d="M47.3151261,71.4546218 C45.8689076,70.8117647 44.5840336,70.6504202 44.2621849,70.9722689 C44.1016807,71.4546218 45.0655462,72.2588235 46.5117647,73.0630252 C47.9579832,73.7058824 49.2428571,73.8672269 49.5647059,73.5453782 C49.7252101,73.0630252 48.7605042,72.2588235 47.3151261,71.4546218" id="Fill-143" fill="#E7F7EF"></path>
                    <path d="M44.4226891,59.5537815 C42.9773109,58.9109244 41.6915966,58.7495798 41.3705882,59.0714286 C41.2092437,59.5537815 42.1739496,60.3579832 43.6193277,61.1621849 C45.0655462,61.805042 46.3512605,61.9655462 46.6722689,61.6445378 C46.8327731,61.0008403 45.8689076,60.1966387 44.4226891,59.5537815" id="Fill-144" fill="#E7F7EF"></path>
                    <path d="M41.8521008,83.5159664 C40.4067227,82.8731092 39.1210084,82.712605 38.8,83.0336134 C38.6386555,83.5159664 39.6033613,84.3201681 41.0487395,85.1243697 C42.494958,85.7680672 43.7798319,85.9285714 44.1016807,85.6067227 C44.2621849,85.1243697 43.2983193,84.1596639 41.8521008,83.5159664" id="Fill-145" fill="#E7F7EF"></path>
                    <path d="M25.4647059,61.0008403 C21.9302521,61.0008403 19.1983193,60.5184874 19.1983193,59.7142857 C19.1983193,58.9109244 22.0907563,58.2672269 25.4647059,58.2672269 C28.9991597,58.2672269 29.802521,58.9109244 29.802521,59.5537815 C29.6420168,60.3579832 28.8386555,61.0008403 25.4647059,61.0008403" id="Fill-146" fill="#E7F7EF"></path>
                    <path d="M17.7529412,46.3663866 C15.5033613,50.0655462 12.9327731,52.6378151 11.9689076,51.994958 C11.005042,51.3521008 11.9689076,47.8134454 14.2184874,44.1142857 C16.4672269,40.4159664 17.7529412,40.0941176 18.7168067,40.7378151 C19.6806723,41.2201681 20.0016807,42.6672269 17.7529412,46.3663866" id="Fill-147" fill="#E7F7EF"></path>
                </g>
            </g>
        </g>
    </g>
</svg>